<mxfile host="app.diagrams.net" modified="2021-12-29T03:19:58.845Z" agent="5.0 (Windows NT 10.0; WOW64) AppleWebKit/537.36 (KHTML, like Gecko) Chrome/75.0.3770.100 Safari/537.36" etag="NKZG7ukjU4cfsOTpwfk4" version="16.1.0" type="github">
  <diagram id="_noqiSW378toQs2qWj4v" name="list.c--linux里的链表">
    <mxGraphModel dx="1863" dy="528" grid="1" gridSize="10" guides="1" tooltips="1" connect="1" arrows="1" fold="1" page="1" pageScale="1" pageWidth="827" pageHeight="1169" math="0" shadow="0">
      <root>
        <mxCell id="0" />
        <mxCell id="1" parent="0" />
        <mxCell id="8j2R5T3ifwdvbYh2FMxT-4" style="edgeStyle=orthogonalEdgeStyle;rounded=0;orthogonalLoop=1;jettySize=auto;html=1;entryX=0;entryY=0.5;entryDx=0;entryDy=0;" edge="1" parent="1" source="8j2R5T3ifwdvbYh2FMxT-2" target="8j2R5T3ifwdvbYh2FMxT-3">
          <mxGeometry relative="1" as="geometry" />
        </mxCell>
        <mxCell id="8j2R5T3ifwdvbYh2FMxT-2" value="//一般的双向链表&lt;br&gt;struct my_list{&lt;br&gt;&lt;span style=&quot;white-space: pre&quot;&gt;	&lt;/span&gt;viod *data;&lt;br&gt;&lt;span style=&quot;white-space: pre&quot;&gt;	&lt;/span&gt;struct mylist *next;&lt;br&gt;&lt;span style=&quot;white-space: pre&quot;&gt;	&lt;/span&gt;struct mylist *prev}" style="rounded=0;whiteSpace=wrap;html=1;align=left;verticalAlign=top;fillColor=#dae8fc;strokeColor=#6c8ebf;" vertex="1" parent="1">
          <mxGeometry x="50" y="180" width="170" height="90" as="geometry" />
        </mxCell>
        <mxCell id="8j2R5T3ifwdvbYh2FMxT-7" style="edgeStyle=orthogonalEdgeStyle;rounded=0;orthogonalLoop=1;jettySize=auto;html=1;entryX=0.465;entryY=0.008;entryDx=0;entryDy=0;entryPerimeter=0;" edge="1" parent="1" source="8j2R5T3ifwdvbYh2FMxT-3" target="8j2R5T3ifwdvbYh2FMxT-5">
          <mxGeometry relative="1" as="geometry">
            <Array as="points">
              <mxPoint x="325" y="300" />
              <mxPoint x="119" y="300" />
            </Array>
          </mxGeometry>
        </mxCell>
        <mxCell id="8j2R5T3ifwdvbYh2FMxT-9" value="两种都是通过宏命令的方式实现" style="edgeLabel;html=1;align=center;verticalAlign=middle;resizable=0;points=[];" vertex="1" connectable="0" parent="8j2R5T3ifwdvbYh2FMxT-7">
          <mxGeometry x="-0.1088" y="2" relative="1" as="geometry">
            <mxPoint as="offset" />
          </mxGeometry>
        </mxCell>
        <mxCell id="8j2R5T3ifwdvbYh2FMxT-8" style="edgeStyle=orthogonalEdgeStyle;rounded=0;orthogonalLoop=1;jettySize=auto;html=1;entryX=0.46;entryY=-0.033;entryDx=0;entryDy=0;entryPerimeter=0;" edge="1" parent="1" source="8j2R5T3ifwdvbYh2FMxT-3" target="8j2R5T3ifwdvbYh2FMxT-6">
          <mxGeometry relative="1" as="geometry" />
        </mxCell>
        <mxCell id="8j2R5T3ifwdvbYh2FMxT-17" style="edgeStyle=orthogonalEdgeStyle;rounded=0;orthogonalLoop=1;jettySize=auto;html=1;entryX=0;entryY=0.5;entryDx=0;entryDy=0;" edge="1" parent="1" source="8j2R5T3ifwdvbYh2FMxT-3" target="8j2R5T3ifwdvbYh2FMxT-16">
          <mxGeometry relative="1" as="geometry" />
        </mxCell>
        <mxCell id="8j2R5T3ifwdvbYh2FMxT-18" style="edgeStyle=orthogonalEdgeStyle;rounded=0;orthogonalLoop=1;jettySize=auto;html=1;entryX=0;entryY=0.5;entryDx=0;entryDy=0;" edge="1" parent="1" source="8j2R5T3ifwdvbYh2FMxT-3" target="8j2R5T3ifwdvbYh2FMxT-14">
          <mxGeometry relative="1" as="geometry" />
        </mxCell>
        <mxCell id="8j2R5T3ifwdvbYh2FMxT-3" value="//LINUX里的双向链表，将前后 指针抽象为一个结构体&lt;br&gt;struct list_head{&lt;br&gt;&lt;span style=&quot;white-space: pre&quot;&gt;	&lt;/span&gt;struct mylist *next,&amp;nbsp;*prev}" style="rounded=0;whiteSpace=wrap;html=1;align=left;verticalAlign=top;fillColor=#dae8fc;strokeColor=#6c8ebf;" vertex="1" parent="1">
          <mxGeometry x="240" y="185" width="170" height="80" as="geometry" />
        </mxCell>
        <mxCell id="8j2R5T3ifwdvbYh2FMxT-5" value="//只是声明&lt;br&gt;#define LIST_HEAD_INIT(name) { &amp;amp;(name), &amp;amp;(name) }" style="rounded=0;whiteSpace=wrap;html=1;align=left;verticalAlign=top;fillColor=#f8cecc;strokeColor=#b85450;" vertex="1" parent="1">
          <mxGeometry x="40" y="330" width="170" height="80" as="geometry" />
        </mxCell>
        <mxCell id="8j2R5T3ifwdvbYh2FMxT-11" style="edgeStyle=orthogonalEdgeStyle;rounded=0;orthogonalLoop=1;jettySize=auto;html=1;entryX=0.5;entryY=0;entryDx=0;entryDy=0;" edge="1" parent="1" source="8j2R5T3ifwdvbYh2FMxT-6" target="8j2R5T3ifwdvbYh2FMxT-10">
          <mxGeometry relative="1" as="geometry" />
        </mxCell>
        <mxCell id="8j2R5T3ifwdvbYh2FMxT-6" value="//声明+初始化&lt;br&gt;&lt;div&gt;#define LIST_HEAD(name) \&lt;/div&gt;&lt;div&gt;&lt;span&gt;	&lt;/span&gt;struct list_head name = LIST_HEAD_INIT(name)&lt;/div&gt;" style="rounded=0;whiteSpace=wrap;html=1;align=left;verticalAlign=top;fillColor=#dae8fc;strokeColor=#6c8ebf;" vertex="1" parent="1">
          <mxGeometry x="244" y="330" width="170" height="70" as="geometry" />
        </mxCell>
        <mxCell id="8j2R5T3ifwdvbYh2FMxT-13" style="edgeStyle=orthogonalEdgeStyle;rounded=0;orthogonalLoop=1;jettySize=auto;html=1;entryX=1;entryY=0.5;entryDx=0;entryDy=0;" edge="1" parent="1" source="8j2R5T3ifwdvbYh2FMxT-10" target="8j2R5T3ifwdvbYh2FMxT-12">
          <mxGeometry relative="1" as="geometry" />
        </mxCell>
        <mxCell id="8j2R5T3ifwdvbYh2FMxT-10" value="&lt;div&gt;//初始化&amp;nbsp; 头尾指针指向自己&lt;/div&gt;&lt;div&gt;static inline void INIT_LIST_HEAD(struct list_head *list)&lt;/div&gt;&lt;div&gt;{&lt;span&gt;WRITE_ONCE(list-&amp;gt;next, list);&lt;/span&gt;&lt;/div&gt;&lt;div&gt;&lt;span&gt;	&lt;/span&gt;list-&amp;gt;prev = list;&lt;span&gt;}&lt;/span&gt;&lt;/div&gt;" style="rounded=0;whiteSpace=wrap;html=1;align=left;verticalAlign=top;fillColor=#dae8fc;strokeColor=#6c8ebf;" vertex="1" parent="1">
          <mxGeometry x="217" y="430" width="224" height="80" as="geometry" />
        </mxCell>
        <mxCell id="8j2R5T3ifwdvbYh2FMxT-12" value="&lt;div&gt;//其中的write_once里的volatile关键字&lt;/div&gt;&lt;div&gt;防止指令重排 如JAVA，多核CPU的应对&lt;/div&gt;&lt;div&gt;#define __WRITE_ONCE(x, val)&lt;span&gt;						&lt;/span&gt;\&lt;/div&gt;&lt;div&gt;do {&lt;span&gt;									&lt;/span&gt;\&lt;/div&gt;&lt;div&gt;&lt;span&gt;	&lt;/span&gt;*(volatile typeof(x) *)&amp;amp;(x) = (val);&lt;span&gt;				&lt;/span&gt;\&lt;/div&gt;&lt;div&gt;} while (0)&lt;/div&gt;&lt;div&gt;&lt;br&gt;&lt;/div&gt;" style="rounded=0;whiteSpace=wrap;html=1;align=left;verticalAlign=top;fillColor=#dae8fc;strokeColor=#6c8ebf;" vertex="1" parent="1">
          <mxGeometry x="-30" y="430" width="230" height="90" as="geometry" />
        </mxCell>
        <mxCell id="8j2R5T3ifwdvbYh2FMxT-14" value="&lt;div&gt;//头部添加&amp;nbsp; 实现栈功能&lt;/div&gt;&lt;div&gt;static inline void list_add(struct list_head *new, struct list_head *head)&lt;/div&gt;&lt;div&gt;{&lt;span&gt;__list_add(new, head, head-&amp;gt;next);&lt;/span&gt;&lt;span&gt;}&lt;/span&gt;&lt;/div&gt;" style="rounded=0;whiteSpace=wrap;html=1;align=left;verticalAlign=top;fillColor=#f8cecc;strokeColor=#b85450;" vertex="1" parent="1">
          <mxGeometry x="490" y="105" width="230" height="80" as="geometry" />
        </mxCell>
        <mxCell id="8j2R5T3ifwdvbYh2FMxT-16" value="&lt;div&gt;//尾部添加&amp;nbsp; 实现队列功能&lt;/div&gt;&lt;div&gt;&lt;div&gt;static inline void list_add_tail(struct list_head *new, struct list_head *head)&lt;/div&gt;&lt;div&gt;{&lt;span&gt;__list_add(new, head-&amp;gt;prev, head);&lt;/span&gt;&lt;span&gt;}&lt;/span&gt;&lt;/div&gt;&lt;/div&gt;" style="rounded=0;whiteSpace=wrap;html=1;align=left;verticalAlign=top;fillColor=#f8cecc;strokeColor=#b85450;" vertex="1" parent="1">
          <mxGeometry x="490" y="210" width="230" height="80" as="geometry" />
        </mxCell>
      </root>
    </mxGraphModel>
  </diagram>
</mxfile>
